<svg id="Capa_1" data-name="Capa 1" xmlns="http://www.w3.org/2000/svg" viewBox="0 0 69.61 69.61"><defs><style>.cls-1{fill:#343434;}.cls-2{fill:#d38c97;}</style></defs><title>damas</title><circle class="cls-1" cx="34.81" cy="34.81" r="34.81"/><path class="cls-2" d="M37.36,53.57a2.08,2.08,0,0,1,2-.19,1.89,1.89,0,0,0,.79.08c.28,0,.66,0,.7-.37s.28-.35.55-.29a8.17,8.17,0,0,0,.86.17c.91.11,1.25-.19,1.22-1.09-.09-2.8-.19-5.6-.33-9.52-.21-2.5.15-6.14-.4-9.75-.36-2.34-.64-4.73-2.22-6.68a1.32,1.32,0,0,1-.13-1.32c.3-.94.59-1.9.81-2.87.12-.55.35-1.23-.14-1.66a1.73,1.73,0,0,1-.51-1.56c0-.46,0-.92,0-1.39s-.11-.78-.56-.78-.56.4-.56.8c0,.58,0,1.16,0,1.75,0,.31,0,.5-.42.5a3.52,3.52,0,0,0-1.72.54,1.54,1.54,0,0,1-1.71,0A3.34,3.34,0,0,0,34,19.41c-.4,0-.48-.18-.47-.53,0-.63,0-1.27,0-1.9,0-.35-.2-.65-.57-.63s-.54.29-.53.66,0,.83,0,1.24c0,.69.13,1.4-.57,1.89-.24.17-.19.49-.18.76a11.34,11.34,0,0,0,.85,3.45,1.86,1.86,0,0,1-.29,1.9,5.88,5.88,0,0,0-1,1.71,25.23,25.23,0,0,0-1.29,7.3q-.17,8.37-.5,16.73c0,.75.32.94.91,1,.26,0,.53-.08.79-.08s.9-.5,1,.35c0,.15.36.2.58.21a2.85,2.85,0,0,0,1.36-.22.92.92,0,0,1,1.12.16A1.85,1.85,0,0,0,37.36,53.57Z" transform="translate(-1.66 -0.28)"/></svg>