<svg id="Capa_1" data-name="Capa 1" xmlns="http://www.w3.org/2000/svg" viewBox="0 0 17.39 17.39"><defs><style>.cls-1{fill:#d38c97;}</style></defs><title>instagram</title><path class="cls-1" d="M9.68,8.29a1.41,1.41,0,1,0,1.4,1.46A1.41,1.41,0,0,0,9.68,8.29Z" transform="translate(-0.96 -1)"/><path class="cls-1" d="M11.64,6.27a32,32,0,0,0-3.92,0A1.49,1.49,0,0,0,6.23,7.8a34.77,34.77,0,0,0,0,3.82A1.47,1.47,0,0,0,7,12.93a1.86,1.86,0,0,0,.86.22c1.21,0,2.42.06,3.63,0a1.55,1.55,0,0,0,1.63-1.61c0-.61,0-1.22,0-1.81s0-1.31,0-1.95A1.52,1.52,0,0,0,11.64,6.27Zm-2,5.62a2.19,2.19,0,1,1,2.19-2.18A2.19,2.19,0,0,1,9.66,11.89Zm2.28-3.95a.51.51,0,1,1,.5-.51A.5.5,0,0,1,11.94,7.94Z" transform="translate(-0.96 -1)"/><path class="cls-1" d="M9.65,1a8.7,8.7,0,1,0,8.7,8.69A8.69,8.69,0,0,0,9.65,1ZM13.9,11.11a4.21,4.21,0,0,1-.14,1.17,2.25,2.25,0,0,1-2,1.61A19.13,19.13,0,0,1,9.65,14a20.75,20.75,0,0,1-2.09-.07,2.26,2.26,0,0,1-2.1-2.17,34,34,0,0,1,0-4A2.25,2.25,0,0,1,7.58,5.51a29.67,29.67,0,0,1,3.53,0,4.25,4.25,0,0,1,1.12.14,2.19,2.19,0,0,1,1.61,1.86,5.62,5.62,0,0,1,.07.92C13.9,9.29,13.91,10.2,13.9,11.11Z" transform="translate(-0.96 -1)"/></svg>