<svg id="Capa_1" data-name="Capa 1" xmlns="http://www.w3.org/2000/svg" viewBox="0 0 69.61 69.61"><defs><style>.cls-1{fill:#343434;}.cls-2{fill:#eae441;}.cls-3{fill:#9ac3ea;}</style></defs><title>invitados</title><circle class="cls-1" cx="34.81" cy="34.81" r="34.81"/><path class="cls-2" d="M35.61,47.55l-.25-1.93c.35-1.32.7-2.64,1.07-4l1.43-4h0a3.69,3.69,0,0,0,.71-1.78,1.23,1.23,0,0,0-1.31-1.52c-1,0-1.93,0-2.89,0a5.87,5.87,0,0,0-4.71,2.42c-.48.65-.73.65-1.22,0a5.71,5.71,0,0,0-3.53-2.28,18.69,18.69,0,0,0-4.36-.12,1.07,1.07,0,0,0-1,1.21,3.31,3.31,0,0,0,.75,2.13h0l1.36,4h0c.34,1.26.67,2.51,1,3.75l-.22,2.28c-.36.94-.8,1.85-1.2,2.77-.29.68-.1,1,.64,1H36.18c.78,0,1-.31.66-1C36.43,49.44,36,48.51,35.61,47.55Z" transform="translate(-1.66 -0.28)"/><path class="cls-3" d="M40.18,25.13a.77.77,0,0,0,.85.34,6.73,6.73,0,0,0,1.48-1.81.57.57,0,0,0-.15-.3l-3-3.86c-.5.69-.94,1.32-1.41,1.94a.43.43,0,0,0,0,.6C38.73,23.06,39.45,24.1,40.18,25.13Z" transform="translate(-1.66 -0.28)"/><path class="cls-3" d="M48.17,18.78h-8l4,5.18Z" transform="translate(-1.66 -0.28)"/><path class="cls-3" d="M43.66,29.5a1.87,1.87,0,0,0-.48-1.4,7.47,7.47,0,0,1-.78-1,1.07,1.07,0,0,0-1.4-.56,1.61,1.61,0,0,1-1.72-.85c-.72-1-1.46-2-2.16-3-.47-.69-1.15-.39-1.72-.34s-.46.6-.47,1v3.49a2,2,0,0,1,0,.25c0,1.85,0,3.71,0,5.56,0,.54.2.6.65.6.25,0,.41,0,.5-.13a12.35,12.35,0,0,1,2.49.52c1,.54,1.29,1.5.95,2.86a2.57,2.57,0,0,1-.4,1c-1,1.26-1.19,2.82-1.62,4.29s-.72,2.72-1.1,4.07v0c1.68,0,5.19,0,6.47,0,.63,0,.82-.13.81-.79C43.63,39.93,43.64,34.71,43.66,29.5Z" transform="translate(-1.66 -0.28)"/><path class="cls-3" d="M46.86,25.1c.45.54.9.56,1.31,0,.76-1,1.48-2.05,2.22-3.08a.39.39,0,0,0,0-.55c-.48-.63-.94-1.27-1.44-2l-2.17,2.8C45.71,23.71,45.71,23.71,46.86,25.1Z" transform="translate(-1.66 -0.28)"/><path class="cls-3" d="M53,22.31c-.57,0-1.25-.36-1.72.34-.72,1-1.48,2.06-2.2,3.1a1.52,1.52,0,0,1-1.61.79c-.94-.33-1.22.26-1.64.79-.26.33-.51.67-.79,1a1.18,1.18,0,0,0-.3.83c0,5.4,0,10.8,0,16.2,0,.49.15.58.59.58,2.4,0,4.79,0,7.19,0,.84,0,.91-.08.92-.94V34.12q0-5.41,0-10.85C53.39,22.88,53.5,22.35,53,22.31ZM52,35.58a1.33,1.33,0,0,1-.19.67,3.67,3.67,0,0,1-3.35,1.32,10.92,10.92,0,0,1-1.57-.78,1.44,1.44,0,0,1-.71-1.3v-2c0-.61,0-1.23,0-1.84a1.37,1.37,0,0,1,1.37-1.4c1,0,2.07,0,3.1,0A1.32,1.32,0,0,1,52,31.63C52,33,52,34.26,52,35.58Z" transform="translate(-1.66 -0.28)"/><path class="cls-3" d="M45.19,24.7c-.21-.25-.31.14-.42.26-.48.54-.7.55-1.17,0l-.3-.36-.15.07A.91.91,0,0,0,42.9,26c.35.44.69.89,1,1.32.11.14.2.35.41.08.44-.57.95-1.1,1.33-1.71S45.43,25,45.19,24.7Z" transform="translate(-1.66 -0.28)"/><path class="cls-3" d="M51,33.6c0-.51,0-1,0-1.54s-.13-.73-.67-.71a23.62,23.62,0,0,1-2.38,0c-.52,0-.72.16-.7.68,0,1,0,1.92,0,2.88a1.88,1.88,0,0,0,2.44,1.56A1.7,1.7,0,0,0,51,34.37,5,5,0,0,1,51,33.6Z" transform="translate(-1.66 -0.28)"/></svg>