<svg id="Capa_1" data-name="Capa 1" xmlns="http://www.w3.org/2000/svg" viewBox="0 0 69.61 69.61"><defs><style>.cls-1{fill:#343434;}.cls-2{fill:none;}.cls-3{fill:#fff;}.cls-4{fill:#f0e6dc;}.cls-5{fill:#e61e4f;}</style></defs><title>mujeres</title><circle class="cls-1" cx="34.81" cy="34.81" r="34.81"/><path class="cls-2" d="M46,21.09c-.09-.18-.25-.17-.4-.19a8,8,0,0,0-3.82-.09c-.68.21-1.06.32-.86,1.11.09.32-.26.8.29,1A7.51,7.51,0,0,1,43,24a.73.73,0,0,0,1,0c.45-.32.92-.63,1.4-.91A1.92,1.92,0,0,0,46,21.09Z" transform="translate(-1.66 -0.28)"/><path class="cls-2" d="M31.63,20.92c-1.21-.17-2.39-.59-3.66-.15-1.11.37-1.12.27-1.14,1.44a.77.77,0,0,0,.52.84,10.86,10.86,0,0,1,1.55,1,.75.75,0,0,0,1,0,5.44,5.44,0,0,1,1.33-.87c.65-.24.86-.62.64-1.45C31.8,21.58,32.28,21,31.63,20.92Z" transform="translate(-1.66 -0.28)"/><path class="cls-3" d="M37.68,19.84c-1.39,0-2.78,0-4.17-.06-.74-.05-1.49-.09-2.22-.2C30,19.38,30,19.36,30,18.11v-1.2c0-.16,0-.29-.21-.35-.72-.21-1.07,0-1.07.78a12.32,12.32,0,0,0,0,1.36c.06.49-.16.65-.58.74a16.71,16.71,0,0,1-4.05.33,4.74,4.74,0,0,0-3.09,1.09c-.18.14-.57.32-.18.59s.38.9,1,.42A4.67,4.67,0,0,1,24.68,21c.85-.05,1,.29.89,1,0,.23.07.49-.36.39s-.24.25-.22.42A8.13,8.13,0,0,0,26.1,26a4.24,4.24,0,0,1,0,4.74,7.94,7.94,0,0,0-.89,2.2,15.14,15.14,0,0,0-.2,5.49A17.89,17.89,0,0,1,21.9,51.25c-.54.74-1,1.54-1.52,2.37h18c-1.05-1.76-2.24-3.33-3.12-5.1A18.41,18.41,0,0,1,33.79,38.4c.23-2.63.31-5.28-1.13-7.68a4.2,4.2,0,0,1,0-4.67,7.92,7.92,0,0,0,1.1-3.13c0-.25.27-.53-.32-.55s-.15-.59-.22-.9-.06-.43.29-.43a4.43,4.43,0,0,1,3,.56c.76.63,1.12.29,1.54-.3a.38.38,0,0,1,.17-.11A1.82,1.82,0,0,0,37.68,19.84Zm-5.8,1.87c.22.83,0,1.21-.64,1.45a5.44,5.44,0,0,0-1.33.87.75.75,0,0,1-1,0,10.86,10.86,0,0,0-1.55-1,.77.77,0,0,1-.52-.84c0-1.17,0-1.07,1.14-1.44,1.27-.44,2.45,0,3.66.15C32.28,21,31.8,21.58,31.88,21.71Z" transform="translate(-1.66 -0.28)"/><path class="cls-4" d="M51,51.22a17.89,17.89,0,0,1-3.12-12.79c.27-2.66.32-5.32-1.14-7.76a4.12,4.12,0,0,1,0-4.59,8.21,8.21,0,0,0,1.12-3.21c0-.18.25-.46-.23-.5-.69-.07-.2-.64-.31-1s.14-.36.41-.37a4.68,4.68,0,0,1,3.32.84c.58.47.69-.24,1-.45s0-.45-.22-.58a4.79,4.79,0,0,0-3-1.09,19.62,19.62,0,0,1-3.43-.17c-1.25-.23-1.26-.22-1.26-1.47,0-.35,0-.7,0-1s-.13-.52-.53-.53-.87,0-.77.7c.07.45,0,.91,0,1.36s-.11.76-.65.85a24.85,24.85,0,0,1-2.85.32c-.56,0-1.11,0-1.67.06a1.82,1.82,0,0,1,.57,1.35c.38-.16,1.2-.27,1.29-.1a2.14,2.14,0,0,1,.08,1.23c0,.17-.16.09-.25.07-.45-.09-.33.2-.3.43a9.65,9.65,0,0,0,1.27,3.5,4,4,0,0,1,0,4.1c-.27.52-.53,1-.76,1.58a13.18,13.18,0,0,0-.53,6.38,18.12,18.12,0,0,1-1.73,10.55.62.62,0,0,0,0,.72c.8,1.22,1.6,2.45,2.37,3.69a.66.66,0,0,0,.64.35H52.55C52,52.78,51.51,52,51,51.22ZM45.39,23.11c-.48.28-1,.59-1.4.91a.73.73,0,0,1-1,0,7.51,7.51,0,0,0-1.75-1.08c-.55-.22-.2-.7-.29-1-.2-.79.18-.9.86-1.11a8,8,0,0,1,3.82.09c.15,0,.31,0,.4.19A1.92,1.92,0,0,1,45.39,23.11Z" transform="translate(-1.66 -0.28)"/><rect class="cls-5" x="3.44" y="34.68" width="65.74" height="1.12" transform="translate(-15.95 35.71) rotate(-44.99)"/><path class="cls-5" d="M36.46,68.74A33.65,33.65,0,1,1,70.11,35.09,33.69,33.69,0,0,1,36.46,68.74Zm0-66.18A32.53,32.53,0,1,0,69,35.09,32.56,32.56,0,0,0,36.46,2.56Z" transform="translate(-1.66 -0.28)"/></svg>