<svg id="Capa_1" data-name="Capa 1" xmlns="http://www.w3.org/2000/svg" viewBox="0 0 17.39 17.39"><defs><style>.cls-1{fill:#d38c97;}</style></defs><title>sitioweb</title><path class="cls-1" d="M13.81,8.5a3.91,3.91,0,0,0,.57-.2,3.45,3.45,0,0,0-1.07-.73,4.34,4.34,0,0,1,.38.87C13.71,8.52,13.74,8.52,13.81,8.5Z" transform="translate(-3.17 -2.1)"/><path class="cls-1" d="M10,8.47a4.94,4.94,0,0,1,.38-.9,3.58,3.58,0,0,0-1.06.73,3.81,3.81,0,0,0,.59.21C10,8.52,10,8.51,10,8.47Z" transform="translate(-3.17 -2.1)"/><path class="cls-1" d="M13.9,9.3a7.2,7.2,0,0,1,.12,1c0,.05,0,.09.08.09h1.28A3.61,3.61,0,0,0,14.9,9c0-.05-.05-.11-.14-.07a4.36,4.36,0,0,1-.79.28C13.9,9.21,13.89,9.24,13.9,9.3Z" transform="translate(-3.17 -2.1)"/><path class="cls-1" d="M10.5,10.43h.88c.09,0,.13,0,.13-.12s0-.49,0-.74c0-.08,0-.11-.11-.12a6,6,0,0,1-.74-.07c-.11,0-.14,0-.15.1,0,.29-.07.57-.1.86C10.4,10.42,10.44,10.43,10.5,10.43Z" transform="translate(-3.17 -2.1)"/><path class="cls-1" d="M12.32,8.74l.56-.05c.1,0,.14,0,.1-.14a3.63,3.63,0,0,0-.41-.81,1.32,1.32,0,0,0-.35-.36V8.64C12.22,8.72,12.24,8.75,12.32,8.74Z" transform="translate(-3.17 -2.1)"/><path class="cls-1" d="M8.44,10.43H9.57c.11,0,.13,0,.14-.14a5.23,5.23,0,0,1,.11-1c0-.1,0-.12-.11-.15A3.66,3.66,0,0,1,9,8.93c-.1,0-.15,0-.2.07a3.84,3.84,0,0,0-.46,1.32C8.34,10.41,8.35,10.43,8.44,10.43Z" transform="translate(-3.17 -2.1)"/><path class="cls-1" d="M10.81,8.69l.61.05c.05,0,.08,0,.08-.06V7.39l-.05,0a2.63,2.63,0,0,0-.72,1.18C10.71,8.67,10.75,8.68,10.81,8.69Z" transform="translate(-3.17 -2.1)"/><path class="cls-1" d="M11.4,12.84l-.43,0c-.27,0-.27,0-.17.28a2.4,2.4,0,0,0,.7,1.05c0-.45,0-.87,0-1.28C11.51,12.84,11.47,12.83,11.4,12.84Z" transform="translate(-3.17 -2.1)"/><path class="cls-1" d="M11.86,2.1a8.7,8.7,0,1,0,8.7,8.69A8.69,8.69,0,0,0,11.86,2.1ZM12.53,15A4.27,4.27,0,0,1,8.2,13a4.12,4.12,0,0,1-.59-2.26A4.25,4.25,0,0,1,16,9.83a3.9,3.9,0,0,1,.06,1.63c0,.09,0,.11-.12.08a3.31,3.31,0,0,0-.41-.14c-.1,0-.22,0-.15-.2s0-.07-.07-.06a6.23,6.23,0,0,1-2.16-.53l-.49-.15v0h.55s.11,0,.1-.07a5.64,5.64,0,0,0-.11-.92s0-.08-.08-.07a7.58,7.58,0,0,1-.82.08c-.05,0-.08,0-.08.08,0,.31,0,.62,0,.93a1,1,0,0,0-.68.66l-.06,0a8.56,8.56,0,0,0-1,0c-.07,0-.08,0-.08.09,0,.29.05.59.1.88,0,.08,0,.11.14.1a5.87,5.87,0,0,1,.72-.08c.12,0,.14,0,.14-.15a1,1,0,0,1,0-.35l.09.27c.14.42.27.83.41,1.24a1.79,1.79,0,0,1,.18,1c.07,0,.09,0,.15,0,.08.25.17.51.26.76C12.65,15,12.59,15,12.53,15Zm3.35-2.18-1.33.5a.25.25,0,0,0-.16.17c-.17.45-.35.9-.52,1.34a.32.32,0,0,1-.26.23.34.34,0,0,1-.29-.26c-.19-.6-.39-1.2-.59-1.79l-.48-1.43a.3.3,0,0,1,0-.34c.1-.11.22-.09.35-.05l3.22,1.07c.14.05.25.12.26.27S16,12.75,15.88,12.81Z" transform="translate(-3.17 -2.1)"/><path class="cls-1" d="M9.93,13.08a3.63,3.63,0,0,0-.58.2,3.81,3.81,0,0,0,1.06.74,5.26,5.26,0,0,1-.38-.9S10,13.06,9.93,13.08Z" transform="translate(-3.17 -2.1)"/><path class="cls-1" d="M9.82,12.27a7.23,7.23,0,0,1-.12-1c0-.09,0-.11-.11-.1H8.43s-.1,0-.08.08a3.77,3.77,0,0,0,.49,1.41c0,.06.07.07.13,0a4.26,4.26,0,0,1,.78-.28C9.82,12.37,9.83,12.34,9.82,12.27Z" transform="translate(-3.17 -2.1)"/></svg>