<svg id="Capa_1" data-name="Capa 1" xmlns="http://www.w3.org/2000/svg" viewBox="0 0 17.39 17.39"><defs><style>.cls-1{fill:#d38c97;}</style></defs><title>ubicacionhoteles</title><path class="cls-1" d="M11.8,8a1.47,1.47,0,0,0,0,2.93A1.47,1.47,0,0,0,11.8,8Z" transform="translate(-3.1 -1.83)"/><path class="cls-1" d="M11.8,1.83a8.7,8.7,0,1,0,8.69,8.7A8.71,8.71,0,0,0,11.8,1.83Zm2.71,9.44A11.67,11.67,0,0,1,12.64,14c-.23.26-.47.5-.71.75a.15.15,0,0,1-.25,0,13,13,0,0,1-2.59-3.45A4.06,4.06,0,0,1,8.61,9.4a3.2,3.2,0,0,1,2.54-3.06,2.91,2.91,0,0,1,.64-.07A3.21,3.21,0,0,1,15,9.07,3.9,3.9,0,0,1,14.51,11.27Z" transform="translate(-3.1 -1.83)"/></svg>