<svg id="Capa_1" data-name="Capa 1" xmlns="http://www.w3.org/2000/svg" viewBox="0 0 29.17 29.17"><defs><style>.cls-1{fill:#d38c97;}</style></defs><title>ubicacion</title><path class="cls-1" d="M18.27,2.75A14.59,14.59,0,1,0,32.86,17.34,14.59,14.59,0,0,0,18.27,2.75Zm4.55,15.84a20.14,20.14,0,0,1-3.14,4.51c-.38.43-.79.84-1.19,1.26a.25.25,0,0,1-.42,0,21.92,21.92,0,0,1-4.34-5.78,6.89,6.89,0,0,1-.81-3.15,5.38,5.38,0,0,1,4.26-5.13,5.12,5.12,0,0,1,1.07-.11,5.38,5.38,0,0,1,5.34,4.69A6.51,6.51,0,0,1,22.82,18.59Z" transform="translate(-3.69 -2.75)"/><path class="cls-1" d="M18.27,13.1a2.46,2.46,0,1,0,2.46,2.46A2.46,2.46,0,0,0,18.27,13.1Z" transform="translate(-3.69 -2.75)"/></svg>