<svg id="Capa_1" data-name="Capa 1" xmlns="http://www.w3.org/2000/svg" viewBox="0 0 56.51 56.51"><defs><style>.cls-1{fill:#d28b97;}</style></defs><title>whatsapp</title><path class="cls-1" d="M36.64,22a12.86,12.86,0,0,0-8.93,19.52,1.48,1.48,0,0,1,.15,1c-.33,1.36-.72,2.71-1.12,4.19,1.44-.38,2.74-.71,4-1.08a1.78,1.78,0,0,1,1.52.2,12.34,12.34,0,0,0,8.91,1.39A12.82,12.82,0,0,0,36.64,22Zm7,20a10.3,10.3,0,0,1-1,.14,10.63,10.63,0,0,1-4.35-1.37,16.54,16.54,0,0,1-6.89-7,4.58,4.58,0,0,1,.53-5.55,2.24,2.24,0,0,1,2.21-.57c.21,0,.44.35.55.58.43,1,.85,1.94,1.21,2.94a1.31,1.31,0,0,1-.09.84,3.07,3.07,0,0,1-.48.69c-.74,1-.74,1,0,2A10.45,10.45,0,0,0,40,38.38a.77.77,0,0,0,1.07-.24c.31-.42.66-.8,1-1.22a.7.7,0,0,1,1-.3c1,.49,2,1,3,1.48a1,1,0,0,1,.36.73A3.22,3.22,0,0,1,43.69,42Z" transform="translate(-9.42 -7.22)"/><path class="cls-1" d="M37.67,7.22A28.25,28.25,0,1,0,65.93,35.47,28.25,28.25,0,0,0,37.67,7.22ZM40.41,50a15,15,0,0,1-8.64-1.5,1.6,1.6,0,0,0-1.23-.1c-2.31.62-4.64,1.22-7,1.83a5.41,5.41,0,0,1-.54.09c.67-2.47,1.3-4.85,2-7.22a1.66,1.66,0,0,0-.12-1.34A15.43,15.43,0,1,1,40.41,50Z" transform="translate(-9.42 -7.22)"/></svg>